<svg xmlns="http://www.w3.org/2000/svg" width="1600" height="1000" viewBox="0 0 1000 625" role="img" aria-label="Snap Motion — Relay route">
  <style>text{font-family:Arial,Helvetica,sans-serif} .mono{font-family:Consolas,monospace;letter-spacing:2px}</style>
  <rect x="0" y="0" width="1000" height="625" rx="0" fill="#f6f3ea"/>
  <rect x="28" y="24" width="40" height="40" rx="8" fill="#232527"/><text x="35" y="50" font-size="17" fill="#f6f3ea" font-weight="700">SM</text>
  <text x="82" y="49" font-size="20" fill="#232527" font-weight="700">SNAP MOTION</text><text x="262" y="49" font-size="17" fill="#66695f" font-weight="400">/ STUDIO</text>
  <text x="780" y="49" font-size="18" fill="#232527" font-weight="400">04 / 12</text><circle cx="935" cy="44" r="5" fill="#b84924"/>
  <rect x="28" y="82" width="944" height="1" rx="0" fill="#d8d2c5"/>
  <text x="30" y="137" font-size="42" fill="#232527" font-weight="700">Relay</text><text x="30" y="173" font-size="21" fill="#66695f" font-weight="400">Route / Sequence</text>
  <rect x="30" y="203" width="644" height="344" rx="8" fill="#e8e3d9"/><path d="M30 203 V547" fill="none" stroke="#d8d2c5" stroke-width="1" stroke-linecap="round" stroke-linejoin="round"/><path d="M76 203 V547" fill="none" stroke="#d8d2c5" stroke-width="1" stroke-linecap="round" stroke-linejoin="round"/><path d="M122 203 V547" fill="none" stroke="#d8d2c5" stroke-width="1" stroke-linecap="round" stroke-linejoin="round"/><path d="M168 203 V547" fill="none" stroke="#d8d2c5" stroke-width="1" stroke-linecap="round" stroke-linejoin="round"/><path d="M214 203 V547" fill="none" stroke="#d8d2c5" stroke-width="1" stroke-linecap="round" stroke-linejoin="round"/><path d="M260 203 V547" fill="none" stroke="#d8d2c5" stroke-width="1" stroke-linecap="round" stroke-linejoin="round"/><path d="M306 203 V547" fill="none" stroke="#d8d2c5" stroke-width="1" stroke-linecap="round" stroke-linejoin="round"/><path d="M352 203 V547" fill="none" stroke="#d8d2c5" stroke-width="1" stroke-linecap="round" stroke-linejoin="round"/><path d="M398 203 V547" fill="none" stroke="#d8d2c5" stroke-width="1" stroke-linecap="round" stroke-linejoin="round"/><path d="M444 203 V547" fill="none" stroke="#d8d2c5" stroke-width="1" stroke-linecap="round" stroke-linejoin="round"/><path d="M490 203 V547" fill="none" stroke="#d8d2c5" stroke-width="1" stroke-linecap="round" stroke-linejoin="round"/><path d="M536 203 V547" fill="none" stroke="#d8d2c5" stroke-width="1" stroke-linecap="round" stroke-linejoin="round"/><path d="M582 203 V547" fill="none" stroke="#d8d2c5" stroke-width="1" stroke-linecap="round" stroke-linejoin="round"/><path d="M628 203 V547" fill="none" stroke="#d8d2c5" stroke-width="1" stroke-linecap="round" stroke-linejoin="round"/><path d="M30 203 H674" fill="none" stroke="#d8d2c5" stroke-width="1" stroke-linecap="round" stroke-linejoin="round"/><path d="M30 252 H674" fill="none" stroke="#d8d2c5" stroke-width="1" stroke-linecap="round" stroke-linejoin="round"/><path d="M30 301 H674" fill="none" stroke="#d8d2c5" stroke-width="1" stroke-linecap="round" stroke-linejoin="round"/><path d="M30 350 H674" fill="none" stroke="#d8d2c5" stroke-width="1" stroke-linecap="round" stroke-linejoin="round"/><path d="M30 399 H674" fill="none" stroke="#d8d2c5" stroke-width="1" stroke-linecap="round" stroke-linejoin="round"/><path d="M30 448 H674" fill="none" stroke="#d8d2c5" stroke-width="1" stroke-linecap="round" stroke-linejoin="round"/><path d="M30 497 H674" fill="none" stroke="#d8d2c5" stroke-width="1" stroke-linecap="round" stroke-linejoin="round"/><path d="M30 546 H674" fill="none" stroke="#d8d2c5" stroke-width="1" stroke-linecap="round" stroke-linejoin="round"/>
  <g transform="translate(52 225)"><path d="M60 210 C83.3 190 153.3 90 200 90 C246.7 90 293.3 210 340 210 C386.7 210 443.3 98.3 480 90 C516.7 81.7 546.7 148.3 560 160" fill="none" stroke="#b84924" stroke-width="5" stroke-linecap="round" stroke-linejoin="round"/></g>
  <circle cx="112" cy="435" r="11" fill="#232527"/><circle cx="112" cy="435" r="4" fill="#f6f3ea"/><text x="128" y="421" font-size="17" fill="#232527" font-weight="700" class="mono">A</text><circle cx="252" cy="315" r="11" fill="#232527"/><circle cx="252" cy="315" r="4" fill="#f6f3ea"/><text x="268" y="301" font-size="17" fill="#232527" font-weight="700" class="mono">B</text><circle cx="392" cy="435" r="11" fill="#232527"/><circle cx="392" cy="435" r="4" fill="#f6f3ea"/><text x="408" y="421" font-size="17" fill="#232527" font-weight="700" class="mono">C</text><circle cx="532" cy="315" r="11" fill="#232527"/><circle cx="532" cy="315" r="4" fill="#f6f3ea"/><text x="548" y="301" font-size="17" fill="#232527" font-weight="700" class="mono">D</text><circle cx="612" cy="385" r="11" fill="#232527"/><circle cx="612" cy="385" r="4" fill="#f6f3ea"/><text x="628" y="371" font-size="17" fill="#232527" font-weight="700" class="mono">E</text>
  <text x="710" y="231" font-size="15" fill="#66695f" font-weight="400">STUDY ATTRIBUTES</text><rect x="710" y="254" width="258" height="1" rx="0" fill="#d8d2c5"/><text x="710" y="276" font-size="13" fill="#66695f" font-weight="400" class="mono">STAGES</text><text x="710" y="300" font-size="20" fill="#232527" font-weight="700">4 handoffs</text><rect x="710" y="308" width="258" height="1" rx="0" fill="#d8d2c5"/><text x="710" y="330" font-size="13" fill="#66695f" font-weight="400" class="mono">ORDER</text><text x="710" y="354" font-size="20" fill="#232527" font-weight="700">Left to right</text><rect x="710" y="362" width="258" height="1" rx="0" fill="#d8d2c5"/><text x="710" y="384" font-size="13" fill="#66695f" font-weight="400" class="mono">OVERLAP</text><text x="710" y="408" font-size="20" fill="#232527" font-weight="700">None</text><rect x="710" y="416" width="258" height="1" rx="0" fill="#d8d2c5"/><text x="710" y="438" font-size="13" fill="#66695f" font-weight="400" class="mono">REST</text><text x="710" y="462" font-size="20" fill="#232527" font-weight="700">After the last stage</text>
  <rect x="710" y="497" width="260" height="50" rx="6" fill="#e4ded1"/><text x="726" y="528" font-size="14" fill="#232527" font-weight="700" class="mono">ILLUSTRATIVE ROUTE</text>
  <rect x="28" y="579" width="944" height="1" rx="0" fill="#d8d2c5"/>
  <text x="30" y="606" font-size="14" fill="#66695f" font-weight="400">MOTION STUDIES</text><text x="785" y="606" font-size="14" fill="#232527" font-weight="400">SNAP / 04</text>
</svg>
