<svg xmlns="http://www.w3.org/2000/svg" width="1600" height="1000" viewBox="0 0 1000 625" role="img" aria-label="Snap Motion — Settle timing">
  <style>text{font-family:Arial,Helvetica,sans-serif} .mono{font-family:Consolas,monospace;letter-spacing:2px}</style>
  <rect x="0" y="0" width="1000" height="625" rx="0" fill="#f6f3ea"/>
  <rect x="28" y="24" width="40" height="40" rx="8" fill="#232527"/><text x="35" y="50" font-size="17" fill="#f6f3ea" font-weight="700">SM</text>
  <text x="82" y="49" font-size="20" fill="#232527" font-weight="700">SNAP MOTION</text><text x="262" y="49" font-size="17" fill="#66695f" font-weight="400">/ STUDIO</text>
  <text x="780" y="49" font-size="18" fill="#232527" font-weight="400">12 / 12</text><circle cx="935" cy="44" r="5" fill="#b84924"/>
  <rect x="28" y="82" width="944" height="1" rx="0" fill="#d8d2c5"/>
  <text x="30" y="137" font-size="42" fill="#232527" font-weight="700">Settle</text><text x="30" y="173" font-size="21" fill="#66695f" font-weight="400">Timing / Damped rest</text>
  <rect x="30" y="203" width="644" height="344" rx="8" fill="#e8e3d9"/>
  <path d="M84 472.20000000000005 H644" fill="none" stroke="#d8d2c5" stroke-width="1.5" stroke-linecap="round" stroke-linejoin="round"/><path d="M84 298.8666666666667 H644" fill="none" stroke="#d8d2c5" stroke-width="1.5" stroke-linecap="round" stroke-linejoin="round" stroke-dasharray="6 6"/>
  <path d="M84 233 V493" fill="none" stroke="#66695f" stroke-width="2" stroke-linecap="round" stroke-linejoin="round"/><path d="M84 472.20000000000005 H644" fill="none" stroke="#66695f" stroke-width="2" stroke-linecap="round" stroke-linejoin="round"/>
  <text x="94" y="289.9" font-size="12" fill="#66695f" font-weight="400" class="mono">TARGET</text><text x="94" y="492.2" font-size="12" fill="#66695f" font-weight="400" class="mono">START</text>
  <path d="M84 472.2 L87.5 472.1 L91 472 L94.5 471.7 L98 471.3 L101.5 470.8 L105 470.3 L108.5 469.6 L112 468.9 L115.5 468.1 L119 467.2 L122.5 466.2 L126 465.2 L129.5 464.1 L133 463 L136.5 461.8 L140 460.6 L143.5 459.3 L147 458 L150.5 456.6 L154 455.2 L157.5 453.8 L161 452.3 L164.5 450.9 L168 449.3 L171.5 447.8 L175 446.2 L178.5 444.7 L182 443.1 L185.5 441.5 L189 439.8 L192.5 438.2 L196 436.6 L199.5 434.9 L203 433.2 L206.5 431.6 L210 429.9 L213.5 428.2 L217 426.6 L220.5 424.9 L224 423.2 L227.5 421.5 L231 419.9 L234.5 418.2 L238 416.6 L241.5 414.9 L245 413.3 L248.5 411.6 L252 410 L255.5 408.4 L259 406.7 L262.5 405.1 L266 403.6 L269.5 402 L273 400.4 L276.5 398.8 L280 397.3 L283.5 395.8 L287 394.3 L290.5 392.8 L294 391.3 L297.5 389.8 L301 388.3 L304.5 386.9 L308 385.4 L311.5 384 L315 382.6 L318.5 381.2 L322 379.9 L325.5 378.5 L329 377.2 L332.5 375.9 L336 374.5 L339.5 373.3 L343 372 L346.5 370.7 L350 369.5 L353.5 368.2 L357 367 L360.5 365.8 L364 364.7 L367.5 363.5 L371 362.4 L374.5 361.2 L378 360.1 L381.5 359 L385 357.9 L388.5 356.9 L392 355.8 L395.5 354.8 L399 353.8 L402.5 352.8 L406 351.8 L409.5 350.8 L413 349.8 L416.5 348.9 L420 348 L423.5 347 L427 346.1 L430.5 345.3 L434 344.4 L437.5 343.5 L441 342.7 L444.5 341.8 L448 341 L451.5 340.2 L455 339.4 L458.5 338.7 L462 337.9 L465.5 337.1 L469 336.4 L472.5 335.7 L476 335 L479.5 334.3 L483 333.6 L486.5 332.9 L490 332.2 L493.5 331.6 L497 330.9 L500.5 330.3 L504 329.7 L507.5 329.1 L511 328.5 L514.5 327.9 L518 327.3 L521.5 326.8 L525 326.2 L528.5 325.7 L532 325.1 L535.5 324.6 L539 324.1 L542.5 323.6 L546 323.1 L549.5 322.6 L553 322.1 L556.5 321.6 L560 321.2 L563.5 320.7 L567 320.3 L570.5 319.8 L574 319.4 L577.5 319 L581 318.6 L584.5 318.2 L588 317.8 L591.5 317.4 L595 317 L598.5 316.6 L602 316.3 L605.5 315.9 L609 315.6 L612.5 315.2 L616 314.9 L619.5 314.5 L623 314.2 L626.5 313.9 L630 313.6 L633.5 313.3 L637 313 L640.5 312.7 L644 312.4" fill="none" stroke="#b84924" stroke-width="5" stroke-linecap="round" stroke-linejoin="round"/><rect x="84" y="507" width="98.8" height="24" rx="4" fill="#e4ded1"/><text x="134.4" y="524" font-size="12" fill="#232527" font-weight="700" class="mono" text-anchor="middle">RELEASE</text><rect x="184.8" y="507" width="300.4" height="24" rx="4" fill="#d8d2c5"/><text x="336" y="524" font-size="12" fill="#232527" font-weight="700" class="mono" text-anchor="middle">TRAVEL</text><rect x="487.2" y="507" width="154.8" height="24" rx="4" fill="#e4ded1"/><text x="565.6" y="524" font-size="12" fill="#232527" font-weight="700" class="mono" text-anchor="middle">REST</text>
  <text x="710" y="231" font-size="15" fill="#66695f" font-weight="400">READING THE CURVE</text>
  <text x="710" y="282" font-size="26" fill="#232527" font-weight="700">Damped rest</text>
  <text x="710" y="322" font-size="15" fill="#66695f" font-weight="400">Height is progress toward</text><text x="710" y="346" font-size="15" fill="#66695f" font-weight="400">the rest position.</text><text x="710" y="370" font-size="15" fill="#66695f" font-weight="400">Width is time, from release</text><text x="710" y="394" font-size="15" fill="#66695f" font-weight="400">to rest.</text><text x="710" y="418" font-size="15" fill="#66695f" font-weight="400">Drawn for character, not</text><text x="710" y="442" font-size="15" fill="#66695f" font-weight="400">taken from a measurement.</text>
  <rect x="710" y="497" width="260" height="50" rx="6" fill="#e4ded1"/><text x="726" y="528" font-size="14" fill="#232527" font-weight="700" class="mono">ILLUSTRATIVE CURVE</text>
  <rect x="28" y="579" width="944" height="1" rx="0" fill="#d8d2c5"/>
  <text x="30" y="606" font-size="14" fill="#66695f" font-weight="400">MOTION STUDIES</text><text x="785" y="606" font-size="14" fill="#232527" font-weight="400">SNAP / 12</text>
</svg>
