<svg xmlns="http://www.w3.org/2000/svg" viewBox="0 0 1600 1000">
  <rect width="1600" height="1000" fill="#f1f5f9"/>
  <rect width="1600" height="142" fill="#ffffff"/>
  <path d="M0 142h1600" stroke="#dbe2ea" stroke-width="4"/>
  <rect x="54" y="44" width="58" height="58" rx="16" fill="#7048e8"/>
  <text x="83" y="84" fill="#fff" font-family="Arial,sans-serif" font-size="32" font-weight="700" text-anchor="middle">Y</text>
  <text x="142" y="64" fill="#64748b" font-family="Arial,sans-serif" font-size="21" font-weight="700">ORGANISATIE</text>
  <text x="142" y="101" fill="#0f172a" font-family="Arial,sans-serif" font-size="34" font-weight="700">Team &amp; rollen</text>
  <rect x="0" y="142" width="250" height="858" fill="#e8eef3"/>
  <rect x="42" y="220" width="166" height="38" rx="19" fill="#7048e8"/>
  <g fill="#fff" stroke="#dbe2ea" stroke-width="4">
    <rect x="298" y="204" width="382" height="324" rx="26"/>
    <rect x="712" y="204" width="382" height="324" rx="26"/>
    <rect x="1126" y="204" width="382" height="324" rx="26"/>
    <rect x="298" y="562" width="382" height="324" rx="26"/>
    <rect x="712" y="562" width="382" height="324" rx="26"/>
    <rect x="1126" y="562" width="382" height="324" rx="26"/>
  </g>
  <g fill="#e9e4fc">
    <circle cx="489" cy="322" r="74"/>
    <circle cx="903" cy="322" r="74"/>
    <circle cx="1317" cy="322" r="74"/>
    <circle cx="489" cy="680" r="74"/>
    <circle cx="903" cy="680" r="74"/>
    <circle cx="1317" cy="680" r="74"/>
  </g>
  <g fill="#7048e8">
    <circle cx="489" cy="306" r="30"/>
    <circle cx="903" cy="306" r="30"/>
    <circle cx="1317" cy="306" r="30"/>
    <circle cx="489" cy="664" r="30"/>
    <circle cx="903" cy="664" r="30"/>
    <circle cx="1317" cy="664" r="30"/>
    <path d="M430 380c20-46 98-46 118 0v16H430Z"/>
    <path d="M844 380c20-46 98-46 118 0v16H844Z"/>
    <path d="M1258 380c20-46 98-46 118 0v16h-118Z"/>
    <path d="M430 738c20-46 98-46 118 0v16H430Z"/>
    <path d="M844 738c20-46 98-46 118 0v16H844Z"/>
    <path d="M1258 738c20-46 98-46 118 0v16h-118Z"/>
  </g>
  <g fill="#94a3b8">
    <rect x="394" y="444" width="190" height="22" rx="11"/>
    <rect x="808" y="444" width="190" height="22" rx="11"/>
    <rect x="1222" y="444" width="190" height="22" rx="11"/>
    <rect x="394" y="802" width="190" height="22" rx="11"/>
    <rect x="808" y="802" width="190" height="22" rx="11"/>
    <rect x="1222" y="802" width="190" height="22" rx="11"/>
  </g>
</svg>
